<svg width="241" height="270" viewBox="0 0 241 270" fill="none" xmlns="http://www.w3.org/2000/svg">
<path d="M21.6033 0C10.0054 0 0.603333 9.40203 0.603333 21V249C0.603333 260.598 10.0054 270 21.6033 270H218.211C229.809 270 239.211 260.598 239.211 249V46.986C239.211 39.8063 233.391 33.986 226.211 33.986H177.956C170.776 33.986 164.956 28.1657 164.956 20.986V13C164.956 5.8203 159.136 0 151.956 0H21.6033Z" fill="#2D342F"/>
<path d="M170.103 14C170.103 6.26801 176.371 0 184.103 0H226.103C233.835 0 240.103 6.26801 240.103 14C240.103 21.732 233.835 28 226.103 28H184.103C176.371 28 170.103 21.732 170.103 14Z" fill="#2D342F"/>
</svg>
