<svg width="404" height="310" viewBox="0 0 404 310" fill="none" xmlns="http://www.w3.org/2000/svg">
<mask id="path-1-inside-1_276_66" fill="white">
<path fill-rule="evenodd" clip-rule="evenodd" d="M324.509 35C337.148 35 342.354 51.2128 332.076 58.5705L50.1474 260.402C41.5446 266.561 29.5801 260.412 29.5801 249.832L29.5801 48C29.5801 40.8203 35.4004 35 42.5801 35H324.509ZM365 61.5236C365 50.9434 353.036 44.7943 344.433 50.9531L64.2212 251.556C53.9436 258.914 59.1489 275.126 71.7887 275.126H352C359.18 275.126 365 269.306 365 262.126V61.5236Z"/>
</mask>
<path fill-rule="evenodd" clip-rule="evenodd" d="M324.509 35C337.148 35 342.354 51.2128 332.076 58.5705L50.1474 260.402C41.5446 266.561 29.5801 260.412 29.5801 249.832L29.5801 48C29.5801 40.8203 35.4004 35 42.5801 35H324.509ZM365 61.5236C365 50.9434 353.036 44.7943 344.433 50.9531L64.2212 251.556C53.9436 258.914 59.1489 275.126 71.7887 275.126H352C359.18 275.126 365 269.306 365 262.126V61.5236Z" fill="#ECE9FF"/>
<path d="M332.076 58.5705L331.494 57.7573L332.076 58.5705ZM50.1474 260.402L49.5653 259.589L50.1474 260.402ZM50.7296 261.215L332.658 59.3836L331.494 57.7573L49.5653 259.589L50.7296 261.215ZM30.5801 249.832L30.5801 48L28.5801 48L28.5801 249.832L30.5801 249.832ZM42.5801 36H324.509V34H42.5801V36ZM343.851 50.14L63.6391 250.743L64.8034 252.369L345.015 51.7662L343.851 50.14ZM352 274.126H71.7887V276.126H352V274.126ZM364 61.5236V262.126H366V61.5236H364ZM352 276.126C359.732 276.126 366 269.858 366 262.126H364C364 268.754 358.628 274.126 352 274.126V276.126ZM63.6391 250.743C52.5709 258.666 58.1766 276.126 71.7887 276.126V274.126C60.1212 274.126 55.3163 259.161 64.8034 252.369L63.6391 250.743ZM345.015 51.7662C352.956 46.0812 364 51.7573 364 61.5236H366C366 50.1296 353.116 43.5075 343.851 50.14L345.015 51.7662ZM30.5801 48C30.5801 41.3726 35.9527 36 42.5801 36V34C34.8481 34 28.5801 40.268 28.5801 48L30.5801 48ZM332.658 59.3836C343.726 51.4599 338.121 34 324.509 34V36C336.176 36 340.981 50.9656 331.494 57.7573L332.658 59.3836ZM49.5653 259.589C41.6242 265.274 30.5801 259.598 30.5801 249.832L28.5801 249.832C28.5801 261.226 41.4649 267.848 50.7296 261.215L49.5653 259.589Z" fill="white" mask="url(#path-1-inside-1_276_66)"/>
</svg>
